REM DIRINDEX 1\2\6,1\2\7,1\2\8,1\3\9,1\3\10,1\3\11,1\4\12,1\4\13,1\4\14,1\5\15,1\5\16,1\5\17,1\5\18
REM DIRNAME cjc019,folder01,folder02,folder03,folder04,folder05,folder06,folder07,folder08,folder09,folder10,folder11,folder12,folder13,folder14,folder15,folder16,folder17
TITLE ""
FILE "2Q_t_0212-0229.mp3" MP3
  TRACK 01 AUDIO
    TITLE "13:cjc019_2480"
    INDEX 01 00:00:00
  TRACK 02 AUDIO
    TITLE "0:"
    INDEX 01 00:00:72
  TRACK 03 AUDIO
    TITLE "14:cjc019_2481"
    INDEX 01 00:01:52
  TRACK 04 AUDIO
    TITLE "0:"
    INDEX 01 00:04:21
  TRACK 05 AUDIO
    TITLE "13:cjc019_2482"
    INDEX 01 00:04:74
  TRACK 06 AUDIO
    TITLE "0:"
    INDEX 01 00:06:28
  TRACK 07 AUDIO
    TITLE "14:cjc019_2483"
    INDEX 01 00:07:09
  TRACK 08 AUDIO
    TITLE "0:"
    INDEX 01 00:12:03
  TRACK 09 AUDIO
    TITLE "13:cjc019_2484"
    INDEX 01 00:12:58
  TRACK 10 AUDIO
    TITLE "0:"
    INDEX 01 00:14:02
  TRACK 11 AUDIO
    TITLE "14:cjc019_2485"
    INDEX 01 00:14:54
  TRACK 12 AUDIO
    TITLE "0:"
    INDEX 01 00:17:10
  TRACK 13 AUDIO
    TITLE "13:cjc019_2486"
    INDEX 01 00:17:67
  TRACK 14 AUDIO
    TITLE "0:"
    INDEX 01 00:19:22
  TRACK 15 AUDIO
    TITLE "14:cjc019_2487"
    INDEX 01 00:20:04
  TRACK 16 AUDIO
    TITLE "0:"
    INDEX 01 00:21:35
  TRACK 17 AUDIO
    TITLE "13:cjc019_2488"
    INDEX 01 00:22:13
  TRACK 18 AUDIO
    TITLE "0:"
    INDEX 01 00:23:28
  TRACK 19 AUDIO
    TITLE "14:cjc019_2489"
    INDEX 01 00:24:06
  TRACK 20 AUDIO
    TITLE "0:"
    INDEX 01 00:26:26
  TRACK 21 AUDIO
    TITLE "13:cjc019_2490"
    INDEX 01 00:27:12
  TRACK 22 AUDIO
    TITLE "0:"
    INDEX 01 00:28:29
  TRACK 23 AUDIO
    TITLE "14:cjc019_2491"
    INDEX 01 00:29:07
  TRACK 24 AUDIO
    TITLE "0:"
    INDEX 01 00:30:22
  TRACK 25 AUDIO
    TITLE "13:cjc019_2492"
    INDEX 01 00:30:67
  TRACK 26 AUDIO
    TITLE "0:"
    INDEX 01 00:32:23
  TRACK 27 AUDIO
    TITLE "14:cjc019_2493"
    INDEX 01 00:33:03
  TRACK 28 AUDIO
    TITLE "0:"
    INDEX 01 00:35:31
  TRACK 29 AUDIO
    TITLE "13:cjc019_2494"
    INDEX 01 00:36:09
  TRACK 30 AUDIO
    TITLE "0:"
    INDEX 01 00:37:26
  TRACK 31 AUDIO
    TITLE "14:cjc019_2495"
    INDEX 01 00:38:08
  TRACK 32 AUDIO
    TITLE "0:"
    INDEX 01 00:41:69
  TRACK 33 AUDIO
    TITLE "13:cjc019_2496"
    INDEX 01 00:42:49
  TRACK 34 AUDIO
    TITLE "0:"
    INDEX 01 00:43:68
  TRACK 35 AUDIO
    TITLE "14:cjc019_2497"
    INDEX 01 00:44:56
  TRACK 36 AUDIO
    TITLE "0:"
    INDEX 01 00:47:36
  TRACK 37 AUDIO
    TITLE "13:cjc019_2498"
    INDEX 01 00:48:14
  TRACK 38 AUDIO
    TITLE "0:"
    INDEX 01 00:49:23
  TRACK 39 AUDIO
    TITLE "14:cjc019_2499"
    INDEX 01 00:50:05
  TRACK 40 AUDIO
    TITLE "0:"
    INDEX 01 00:53:58
  TRACK 41 AUDIO
    TITLE "13:cjc019_2500"
    INDEX 01 00:54:38
  TRACK 42 AUDIO
    TITLE "0:"
    INDEX 01 00:55:53
  TRACK 43 AUDIO
    TITLE "14:cjc019_2501"
    INDEX 01 00:56:33
  TRACK 44 AUDIO
    TITLE "0:"
    INDEX 01 00:57:25
  TRACK 45 AUDIO
    TITLE "13:cjc019_2502"
    INDEX 01 00:58:07
  TRACK 46 AUDIO
    TITLE "0:"
    INDEX 01 00:59:32
  TRACK 47 AUDIO
    TITLE "14:cjc019_2503"
    INDEX 01 01:00:19
  TRACK 48 AUDIO
    TITLE "0:"
    INDEX 01 01:02:54
  TRACK 49 AUDIO
    TITLE "13:cjc019_2504"
    INDEX 01 01:03:31
  TRACK 50 AUDIO
    TITLE "0:"
    INDEX 01 01:04:64
  TRACK 51 AUDIO
    TITLE "14:cjc019_2505"
    INDEX 01 01:05:42
  TRACK 52 AUDIO
    TITLE "0:"
    INDEX 01 01:06:55
  TRACK 53 AUDIO
    TITLE "13:cjc019_2506"
    INDEX 01 01:07:35
  TRACK 54 AUDIO
    TITLE "0:"
    INDEX 01 01:08:44
  TRACK 55 AUDIO
    TITLE "14:cjc019_2507"
    INDEX 01 01:09:20
  TRACK 56 AUDIO
    TITLE "0:"
    INDEX 01 01:13:36
  TRACK 57 AUDIO
    TITLE "13:cjc019_2508"
    INDEX 01 01:14:14
  TRACK 58 AUDIO
    TITLE "0:"
    INDEX 01 01:15:29
  TRACK 59 AUDIO
    TITLE "14:cjc019_2509"
    INDEX 01 01:16:11
  TRACK 60 AUDIO
    TITLE "0:"
    INDEX 01 01:18:64
  TRACK 61 AUDIO
    TITLE "13:cjc019_2510"
    INDEX 01 01:19:42
  TRACK 62 AUDIO
    TITLE "0:"
    INDEX 01 01:21:10
  TRACK 63 AUDIO
    TITLE "14:cjc019_2511"
    INDEX 01 01:21:72
  TRACK 64 AUDIO
    TITLE "0:"
    INDEX 01 01:25:66
  TRACK 65 AUDIO
    TITLE "13:cjc019_2512"
    INDEX 01 01:26:46
  TRACK 66 AUDIO
    TITLE "0:"
    INDEX 01 01:27:53
  TRACK 67 AUDIO
    TITLE "14:cjc019_2513"
    INDEX 01 01:28:37
  TRACK 68 AUDIO
    TITLE "0:"
    INDEX 01 01:32:12
  TRACK 69 AUDIO
    TITLE "13:cjc019_2514"
    INDEX 01 01:32:64
  TRACK 70 AUDIO
    TITLE "0:"
    INDEX 01 01:33:70
  TRACK 71 AUDIO
    TITLE "14:cjc019_2515"
    INDEX 01 01:34:52
  TRACK 72 AUDIO
    TITLE "0:"
    INDEX 01 01:37:69
